<svg xmlns="http://www.w3.org/2000/svg" viewBox="0 0 183.83 48"><svg x="0" y="0" width="48" height="48" viewBox="0 0 64 64"><path d="M16 0 H48 A16 16 0 0 1 64 16 V60 A4 4 0 0 1 60 64 H16 A16 16 0 0 1 0 48 V16 A16 16 0 0 1 16 0 Z" fill="#440382"></path><g><g transform="translate(10.55 10.62) scale(0.425)"><g><g fill="#FFFEFB"><rect x="0" y="0" width="16" height="3.2"></rect><polygon points="3,0 13,0 26.5,25 17.5,25"></polygon><rect x="17.5" y="24" width="9" height="22"></rect><rect x="11" y="42.8" width="22" height="3.2"></rect></g><g fill="#D9C29A"><rect x="30" y="0" width="14" height="3.2"></rect><polygon points="36.5,0 40.7,0 26.5,25.5 22.3,25.5"></polygon></g></g></g><g transform="translate(32.20 10.62) scale(0.425)"><g fill="#FFFEFB"><rect x="4" y="0" width="3.6" height="46"></rect><polygon points="4,0 13,0 31,46 25,46"></polygon><polygon points="25.5,46 29.1,46 46.6,0 43,0"></polygon><rect x="43" y="0" width="9" height="46"></rect><rect x="0" y="0" width="13" height="3.2"></rect><rect x="43" y="0" width="13" height="3.2"></rect><rect x="0" y="42.8" width="12" height="3.2"></rect><rect x="39" y="42.8" width="17" height="3.2"></rect></g></g><g transform="translate(10.97 33.83) scale(0.425)"><path fill="#FFFEFB" fill-rule="evenodd" d="M0 0 H21 A21 23 0 0 1 21 46 H0 V42.8 H5 V3.2 H0 Z M14 3.2 H20 A13 19.8 0 0 1 20 42.8 H14 Z"></path></g><g transform="translate(35.60 33.83) scale(0.425)"><g fill="#FFFEFB"><rect x="0" y="0" width="40" height="3.6"></rect><rect x="0" y="0" width="3.6" height="10"></rect><rect x="36.4" y="0" width="3.6" height="10"></rect><rect x="15.5" y="0" width="9" height="46"></rect><rect x="9" y="42.8" width="22" height="3.2"></rect></g></g></g></svg><svg x="59" y="10" width="124.83" height="28" viewBox="-1 -1 214 48"><g><g fill="#221A28"><rect x="0" y="0" width="16" height="3.2"></rect><polygon points="3,0 13,0 26.5,25 17.5,25"></polygon><rect x="17.5" y="24" width="9" height="22"></rect><rect x="11" y="42.8" width="22" height="3.2"></rect></g><g fill="#8B5EB5"><rect x="30" y="0" width="14" height="3.2"></rect><polygon points="36.5,0 40.7,0 26.5,25.5 22.3,25.5"></polygon></g></g><g transform="translate(54 0)"><g fill="#221A28"><rect x="4" y="0" width="3.6" height="46"></rect><polygon points="4,0 13,0 31,46 25,46"></polygon><polygon points="25.5,46 29.1,46 46.6,0 43,0"></polygon><rect x="43" y="0" width="9" height="46"></rect><rect x="0" y="0" width="13" height="3.2"></rect><rect x="43" y="0" width="13" height="3.2"></rect><rect x="0" y="42.8" width="12" height="3.2"></rect><rect x="39" y="42.8" width="17" height="3.2"></rect></g></g><g transform="translate(120 0)"><path fill="#221A28" fill-rule="evenodd" d="M0 0 H21 A21 23 0 0 1 21 46 H0 V42.8 H5 V3.2 H0 Z M14 3.2 H20 A13 19.8 0 0 1 20 42.8 H14 Z"></path></g><g transform="translate(172 0)"><g fill="#221A28"><rect x="0" y="0" width="40" height="3.6"></rect><rect x="0" y="0" width="3.6" height="10"></rect><rect x="36.4" y="0" width="3.6" height="10"></rect><rect x="15.5" y="0" width="9" height="46"></rect><rect x="9" y="42.8" width="22" height="3.2"></rect></g></g></svg></svg>