<svg xmlns="http://www.w3.org/2000/svg" width="96" height="96" viewBox="0 0 96 96" role="img" aria-labelledby="mood-1-very-low-title"><title id="mood-1-very-low-title">많이 힘들었어요</title><defs>
<radialGradient id="mood-1-very-low-halo" cx="45%" cy="35%" r="70%"><stop offset="0" stop-color="#F0E9FD" stop-opacity=".8"/><stop offset="1" stop-color="#F0E9FD"/></radialGradient>
<radialGradient id="mood-1-very-low-face" cx="32%" cy="22%" r="82%"><stop offset="0" stop-color="#F1E7FF"/><stop offset=".61" stop-color="#D4BBF7"/><stop offset="1" stop-color="#B393E3"/></radialGradient>
<radialGradient id="mood-1-very-low-shine" cx="38%" cy="25%" r="80%"><stop offset="0" stop-color="#FFFFFF" stop-opacity=".66"/><stop offset="1" stop-color="#FFFFFF" stop-opacity="0"/></radialGradient>
<radialGradient id="mood-1-very-low-blush"><stop offset="0" stop-color="#B696DF" stop-opacity=".75"/><stop offset="1" stop-color="#B696DF" stop-opacity="0"/></radialGradient>
</defs><circle cx="48" cy="48" r="45" fill="url(#mood-1-very-low-halo)"/><ellipse cx="48" cy="78" rx="25.5" ry="3.7" fill="#B393E3" opacity="0.12"/><circle cx="48" cy="48" r="33" fill="url(#mood-1-very-low-face)"/><ellipse cx="27.5" cy="54" rx="8" ry="5.5" fill="url(#mood-1-very-low-blush)" opacity="1"/><ellipse cx="68.5" cy="54" rx="8" ry="5.5" fill="url(#mood-1-very-low-blush)" opacity="1"/><path d="M28 32Q34 28 40 29" fill="none" stroke="#603AB2" stroke-width="2.7" stroke-linecap="round" stroke-linejoin="round"/><path d="M56 29Q62 28 68 32" fill="none" stroke="#603AB2" stroke-width="2.7" stroke-linecap="round" stroke-linejoin="round"/><ellipse cx="36" cy="41" rx="3.15" ry="4" fill="#603AB2" opacity="1"/><ellipse cx="60" cy="41" rx="3.15" ry="4" fill="#603AB2" opacity="1"/><ellipse cx="35.1" cy="39.7" rx="0.7" ry="0.9" fill="#FFFFFF" opacity="0.48"/><ellipse cx="59.1" cy="39.7" rx="0.7" ry="0.9" fill="#FFFFFF" opacity="0.48"/><path d="M34 65Q48 47 62 65Q48 60 34 65Z" fill="#603AB2"/><path d="M28 46C28 46 24.5 51 24.5 54C24.5 58 31.5 58 31.5 54C31.5 51 28 46Z" fill="#AD9AD9"/><ellipse cx="27" cy="53" rx="1" ry="1.5" fill="#FFFFFF" opacity="0.55"/></svg>